<?xml version='1.0' encoding='utf-8'?>
<svg xmlns="http://www.w3.org/2000/svg" version="1.1" width="1200" height="450" viewBox="0 0 1200 450"><rect x="0" y="0" width="1200" height="450" fill="white" /><text x="600.00" y="24" font-size="18" text-anchor="middle" font-weight="bold" fill="#333">Altimetría - Termas de Río Hondo</text><line x1="80" y1="380" x2="1170" y2="380" stroke="#333" stroke-width="1.5" /><line x1="80" y1="40" x2="80" y2="380" stroke="#333" stroke-width="1.5" /><line x1="80.00" y1="40" x2="80.00" y2="380" stroke="#ddd" stroke-width="1" stroke-dasharray="3 4" /><line x1="80.00" y1="380" x2="80.00" y2="386" stroke="#333" stroke-width="1" /><text x="80.00" y="402" font-size="12" text-anchor="middle" fill="#333">0 m</text><line x1="227.54" y1="40" x2="227.54" y2="380" stroke="#ddd" stroke-width="1" stroke-dasharray="3 4" /><line x1="227.54" y1="380" x2="227.54" y2="386" stroke="#333" stroke-width="1" /><text x="227.54" y="402" font-size="12" text-anchor="middle" fill="#333">500 m</text><line x1="375.07" y1="40" x2="375.07" y2="380" stroke="#ddd" stroke-width="1" stroke-dasharray="3 4" /><line x1="375.07" y1="380" x2="375.07" y2="386" stroke="#333" stroke-width="1" /><text x="375.07" y="402" font-size="12" text-anchor="middle" fill="#333">1000 m</text><line x1="522.61" y1="40" x2="522.61" y2="380" stroke="#ddd" stroke-width="1" stroke-dasharray="3 4" /><line x1="522.61" y1="380" x2="522.61" y2="386" stroke="#333" stroke-width="1" /><text x="522.61" y="402" font-size="12" text-anchor="middle" fill="#333">1500 m</text><line x1="670.15" y1="40" x2="670.15" y2="380" stroke="#ddd" stroke-width="1" stroke-dasharray="3 4" /><line x1="670.15" y1="380" x2="670.15" y2="386" stroke="#333" stroke-width="1" /><text x="670.15" y="402" font-size="12" text-anchor="middle" fill="#333">2000 m</text><line x1="817.68" y1="40" x2="817.68" y2="380" stroke="#ddd" stroke-width="1" stroke-dasharray="3 4" /><line x1="817.68" y1="380" x2="817.68" y2="386" stroke="#333" stroke-width="1" /><text x="817.68" y="402" font-size="12" text-anchor="middle" fill="#333">2500 m</text><line x1="965.22" y1="40" x2="965.22" y2="380" stroke="#ddd" stroke-width="1" stroke-dasharray="3 4" /><line x1="965.22" y1="380" x2="965.22" y2="386" stroke="#333" stroke-width="1" /><text x="965.22" y="402" font-size="12" text-anchor="middle" fill="#333">3000 m</text><line x1="1112.76" y1="40" x2="1112.76" y2="380" stroke="#ddd" stroke-width="1" stroke-dasharray="3 4" /><line x1="1112.76" y1="380" x2="1112.76" y2="386" stroke="#333" stroke-width="1" /><text x="1112.76" y="402" font-size="12" text-anchor="middle" fill="#333">3500 m</text><line x1="1170.00" y1="40" x2="1170.00" y2="380" stroke="#ddd" stroke-width="1" stroke-dasharray="3 4" /><line x1="1170.00" y1="380" x2="1170.00" y2="386" stroke="#333" stroke-width="1" /><text x="1170.00" y="402" font-size="12" text-anchor="middle" fill="#333">3694 m</text><line x1="80" y1="453.62" x2="1170" y2="453.62" stroke="#ddd" stroke-width="1" stroke-dasharray="3 4" /><line x1="74" y1="453.62" x2="80" y2="453.62" stroke="#333" stroke-width="1" /><text x="70" y="457.62" font-size="12" text-anchor="end" fill="#333">280 m</text><line x1="80" y1="319.76" x2="1170" y2="319.76" stroke="#ddd" stroke-width="1" stroke-dasharray="3 4" /><line x1="74" y1="319.76" x2="80" y2="319.76" stroke="#333" stroke-width="1" /><text x="70" y="323.76" font-size="12" text-anchor="end" fill="#333">281 m</text><line x1="80" y1="185.91" x2="1170" y2="185.91" stroke="#ddd" stroke-width="1" stroke-dasharray="3 4" /><line x1="74" y1="185.91" x2="80" y2="185.91" stroke="#333" stroke-width="1" /><text x="70" y="189.91" font-size="12" text-anchor="end" fill="#333">282 m</text><line x1="80" y1="52.05" x2="1170" y2="52.05" stroke="#ddd" stroke-width="1" stroke-dasharray="3 4" /><line x1="74" y1="52.05" x2="80" y2="52.05" stroke="#333" stroke-width="1" /><text x="70" y="56.05" font-size="12" text-anchor="end" fill="#333">283 m</text><text x="625.00" y="426" font-size="14" text-anchor="middle" fill="#333">Distancia (m)</text><text x="24" y="210.00" font-size="14" text-anchor="middle" fill="#333" transform="rotate(-90 24 210.00)">Altitud (m)</text><polyline points="80.00,161.81 136.36,318.43 157.31,260.87 183.28,205.98 258.52,40.00 276.52,40.00 296.88,122.99 332.58,288.98 376.55,80.16 400.15,66.77 435.56,160.47 472.45,161.81 493.10,180.55 527.33,260.87 585.76,353.23 625.89,366.61 645.06,380.00 670.44,309.06 697.59,282.28 743.32,267.56 798.21,180.55 850.44,203.31 906.79,272.91 959.02,311.73 996.79,317.09 1036.63,317.09 1094.17,239.45 1147.57,234.09 1170.00,280.94 1170.00,380.00" stroke="#8B0000" stroke-width="2" fill="none" /></svg>